# xmcd
#
# Track frame offsets:
#	150
#	35863
#	52018
#	59950
#	95640
#	119458
#	151801
#	179043
#	211327
#	232855
#	251402
#	282907
#
# Disc length: 4718 seconds
# Revision: 0
# Processed by: cddbd v1.5.2PL0 Copyright (c) Steve Scherf et al.
# Submitted via: dBpowerAMP V12.0
#
DISCID=b6126c0c
DTITLE=Valery Gergiev - Ravel: Daphnis et Chloe, Pavane, Bolero
DYEAR=2010
DGENRE=Classical - Orchestral
TTITLE0=Daphnis et Chloe: 1. Introduction et Danse Religieuse
TTITLE1=Daphnis et Chloe: 2. Les jeunes filles attirent Daphnis - Danse Generale
TTITLE2=Daphnis et Chloe: 3. Danse grotesque de Dorcon
TTITLE3=Daphnis et Chloe: 4. Danse legere et gracieuse de Daphnis - Lyceion danse - Les pirates
TTITLE4=Daphnis et Chloe: 5. Une lumiere irreelle enveloppe le paysage - Danse lente et mysterieuse
TTITLE5=Daphnis et Chloe: 6. Daphnis se prosterne suppliant. Voix, tres lointaines
TTITLE6=Daphnis et Chloe: 7. Danse suppliante de Chlo・- Bryaxis veut l'entrainer - L'ombre de Pan apparait
TTITLE7=Daphnis et Chloe: 8. Lever du jour - Daphnis cherche pour Chloe et il reve d'elle
TTITLE8=Daphnis et Chloe: 9. Chloe reapparait
TTITLE9=Daphnis et Chloe: 10. Anime - Danse Generale - Danse finale (Bacchanale)
TTITLE10=Pavane pour une infante defunte
TTITLE11=Bolero
EXTD=
EXTT0=
EXTT1=
EXTT2=
EXTT3=
EXTT4=
EXTT5=
EXTT6=
EXTT7=
EXTT8=
EXTT9=
EXTT10=
EXTT11=
PLAYORDER=
